# xmcd
# 
# Track frame offsets:
#     150
#     16455
#     31052
#     46700
#     64582
#     82520
#     102787
#     118425
#     132555
#     149077
#     166707
#     183950
#     197430
# 
# Disc length: 2847
# 
# Revision: 2
# Processed by: cddbd v1.5.2PL0 Copyright (c) Steve Scherf et al.
# Submitted via: fre:ac v1.1beta1pre3
# 
DISCID=a30b1d0d
DTITLE=Adam Gregory - The Way I'm Made
DYEAR=2000
DGENRE=Country
TTITLE0=Only Know I Do
TTITLE1=Horseshoes
TTITLE2=No Vacancy
TTITLE3=Big Star
TTITLE4=City Boy's Dream
TTITLE5=The Way I'm Made
TTITLE6=Facts Of Life
TTITLE7=Half Past Loving You
TTITLE8=Too Young To Know
TTITLE9=It Ain't Cool
TTITLE10=The Ring
TTITLE11=The Sky Is The Limit
TTITLE12=Leavin' That Cowgirl With The Blues
EXTD=
EXTT0=
EXTT1=
EXTT2=
EXTT3=
EXTT4=
EXTT5=
EXTT6=
EXTT7=
EXTT8=
EXTT9=
EXTT10=
EXTT11=
EXTT12=
PLAYORDER=
